{"title":"UFC Fight Night 76 Official Weigh-Ins 720p WEB-DL x264 - TX -={S","uid":12625316,"size":493032352,"categoryP":"video","categoryS":"hd___tv_shows","magnet":"?xt=urn:btih:fb131af75b51adfe0ee0ab2806d6a1bd663c3447&amp;dn=UFC+Fight+Night+76+Official+Weigh-Ins+720p+WEB-DL+x264+-+TX+-%3D%7BS&amp;tr=udp%3A%2F%2Ftracker.leechers-paradise.org%3A6969&amp;tr=udp%3A%2F%2Fzer0day.ch%3A1337&amp;tr=udp%3A%2F%2Fopen.demonii.com%3A1337&amp;tr=udp%3A%2F%2Ftracker.coppersurfer.tk%3A6969&amp;tr=udp%3A%2F%2Fexodus.desync.com%3A6969","seeders":0,"leechers":1,"uploader":"CenaCme","files":2,"time":1445766592,"description":"UFC Fight Night 76 Official Weigh-Ins 720p WEB-DL x264 - TX\r\n\r\n\r\nVideo\r\nID                                       : 1\r\nFormat                                   : AVC\r\nFormat/Info                              : Advanced Video Codec\r\nFormat profile                           :   \r\nFormat settings, CABAC                   : Yes\r\nFormat settings, ReFrames                : 1 frame\r\nCodec ID                                 : avc1\r\nCodec ID/Info                            : Advanced Video Coding\r\nDuration                                 : 25mn 6s\r\nBit rate                                 : 2 425 Kbps\r\nMaximum bit rate                         : 6 155 Kbps\r\nWidth                                    : 1 280 pixels\r\nHeight                                   : 720 pixels\r\nDisplay aspect ratio                     : 16:9\r\nFrame rate mode                          : Constant\r\nFrame rate                               : 30.000 fps\r\nColor space                              : YUV\r\nChroma subsampling                       : 4:2:0\r\nBit depth                                : 8 bits\r\nScan type                                : Progressive\r\nBits/(Pixel*Frame)                       : 0.088\r\nStream size                              : 435 MiB (93%)\r\n\r\n\r\nAudio\r\nID                                       : 2\r\nFormat                                   : AAC\r\nFormat/Info                              : Advanced Audio Codec\r\nFormat profile                           : LC\r\nCodec ID                                 : 40\r\nDuration                                 : 25mn 6s\r\nBit rate mode                            : Variable\r\nBit rate                                 : 192 Kbps\r\nMaximum bit rate                         : 201 Kbps\r\nChannel(s)                               : 2 channels\r\nChannel positions                        : Front: L R\r\nSampling rate                            : 44.1 KHz\r\nCompression mode                         : Lossy\r\nStream size                              : 34.5 MiB (7%)\r\n\r\n\r\nThumb sheet:\r\n \nhttp://imgsparrow.co/image/8Ru","torrent":{"xt":"urn:btih:fb131af75b51adfe0ee0ab2806d6a1bd663c3447","amp;dn":"UFC+Fight+Night+76+Official+Weigh-Ins+720p+WEB-DL+x264+-+TX+-%3D%7BS","amp;tr":["udp%3A%2F%2Ftracker.leechers-paradise.org%3A6969","udp%3A%2F%2Fzer0day.ch%3A1337","udp%3A%2F%2Fopen.demonii.com%3A1337","udp%3A%2F%2Ftracker.coppersurfer.tk%3A6969","udp%3A%2F%2Fexodus.desync.com%3A6969"],"infoHash":"fb131af75b51adfe0ee0ab2806d6a1bd663c3447","infoHashBuffer":{"type":"Buffer","data":[251,19,26,247,91,81,173,254,14,224,171,40,6,214,161,189,102,60,52,71]},"announce":[],"urlList":[]}}